PathFileType	4	(X/Y/Z)	S:\OneDrive - The University of Tokyo\ìåëÂéˆã∆\ÉoÉCÉÅÉJ\ë™íË\hirabayashi_2\Trimmed\Trimmed_BarL1Hirabayashi1.trc
DataRate	CameraRate	NumFrames	NumMarkers	Units	OrigDataRate	OrigDataStartFrame	OrigNumFrames
200.00	200.00	       29	12	mm	200.00	199	       265
Frame#	Time	BarR0			BarR50			BarR100			BarR130			BarR180			BarR230			BarL0			BarL50			BarL100			BarL130			BarL180			BarL230			
		X1	Y1	Z1	X2	Y2	Z2	X3	Y3	Z3	X4	Y4	Z4	X5	Y5	Z5	X6	Y6	Z6	X7	Y7	Z7	X8	Y8	Z8	X9	Y9	Z9	X10	Y10	Z10	X11	Y11	Z11	X12	Y12	Z12	

199	0.990	-576.84357	2755.31543	1663.87817	-604.41742	2305.94092	1662.50671	-637.73761	1851.73279	1661.82837	-661.35339	1349.22827	1661.60706	-690.45923	902.42914	1662.28491	-714.10602	454.44363	1663.80469	-1112.23206	2805.43848	1664.55786	-1139.02637	2354.30737	1648.44385	-1168.91699	1904.49719	1638.11829	-1196.62427	1404.14978	1637.03479	-1224.05664	953.41052	1648.61768	-1242.39526	507.49634	1667.07898	
200	0.995	-576.31024	2755.30225	1664.34412	-605.67041	2306.21313	1662.14014	-637.77844	1851.75488	1661.83167	-661.35040	1349.20471	1661.61792	-690.45819	902.42371	1662.27783	-714.10809	454.43137	1663.80139	-1112.21143	2805.38306	1664.55273	-1138.99878	2354.26636	1648.43005	-1168.88440	1904.43298	1638.10986	-1196.62122	1404.13159	1637.01880	-1224.03625	953.39264	1648.60571	-1242.38965	507.46091	1667.06067	
201	1.000	-576.84473	2755.34302	1663.88342	-604.31451	2305.90088	1662.48486	-637.77966	1851.71924	1661.80872	-661.33246	1349.19507	1661.61755	-690.46753	902.42078	1662.27991	-714.11932	454.44537	1663.80200	-1112.22302	2805.41089	1664.55591	-1139.00134	2354.25464	1648.42676	-1168.90454	1904.45984	1638.12512	-1196.56824	1404.07141	1637.03796	-1224.02271	953.38470	1648.61633	-1242.38855	507.42651	1667.07410	
202	1.005	-576.83441	2755.31543	1663.88794	-604.36816	2305.91675	1662.49976	-637.71655	1851.70605	1661.82520	-661.33875	1349.19104	1661.61499	-690.48047	902.42328	1662.28528	-714.12140	454.43314	1663.80627	-1112.21375	2805.36084	1664.54871	-1138.98145	2354.21924	1648.46375	-1168.84424	1904.32666	1638.13733	-1196.55676	1404.06860	1637.01526	-1223.98279	953.36194	1648.63525	-1242.37500	507.40295	1667.07849	
203	1.010	-576.84778	2755.30371	1663.87170	-604.34491	2305.90308	1662.51160	-637.74908	1851.66821	1661.81641	-661.32129	1349.19080	1661.62378	-690.47565	902.37115	1662.28125	-714.10144	454.44626	1663.80908	-1112.20374	2805.36133	1664.54602	-1138.95850	2354.21704	1648.45837	-1168.92102	1904.45959	1638.12671	-1196.60596	1404.04285	1637.04272	-1224.00586	953.33789	1648.64539	-1242.37830	507.40958	1667.06494	
204	1.015	-576.82782	2755.31079	1663.87341	-604.35870	2305.87183	1662.50781	-637.71301	1851.68494	1661.83264	-661.31091	1349.20227	1661.62170	-690.46222	902.40417	1662.30200	-714.09357	454.42529	1663.80298	-1112.21094	2805.34741	1664.54150	-1138.93726	2354.21753	1648.44666	-1168.88391	1904.44031	1638.13501	-1196.54675	1404.03210	1637.04614	-1224.01160	953.33521	1648.64331	-1242.36914	507.38174	1667.04700	
205	1.020	-576.82373	2755.30298	1663.85449	-604.33276	2305.90503	1662.50928	-637.74548	1851.67834	1661.82129	-661.30499	1349.20068	1661.62073	-690.44836	902.38623	1662.28491	-714.11163	454.41827	1663.79382	-1112.20728	2805.35889	1664.54883	-1138.93958	2354.21924	1648.44568	-1168.78552	1904.35522	1638.16064	-1196.53540	1404.08618	1637.05469	-1223.98865	953.35144	1648.65918	-1242.36133	507.38907	1667.06763	
206	1.025	-576.30646	2755.23828	1664.34497	-605.65277	2306.23755	1662.13684	-637.72552	1851.70264	1661.81250	-661.28467	1349.17615	1661.63062	-690.44861	902.45776	1662.30725	-714.08411	454.43317	1663.80847	-1112.19495	2805.36230	1664.54871	-1138.95422	2354.23730	1648.45581	-1168.83911	1904.42090	1638.16333	-1196.54309	1404.07800	1637.07043	-1224.00549	953.33289	1648.65613	-1242.41370	507.40079	1667.06763	
207	1.030	-576.28796	2755.26392	1664.35608	-605.66644	2306.22437	1662.14282	-637.75061	1851.69336	1661.83655	-661.30768	1349.20813	1661.62036	-690.43689	902.39386	1662.28174	-714.07306	454.44214	1663.80298	-1112.20935	2805.39893	1664.55188	-1138.96704	2354.26318	1648.47217	-1168.84668	1904.46887	1638.18262	-1196.52100	1404.09277	1637.09070	-1224.01318	953.37274	1648.67395	-1242.37866	507.41586	1667.08630	
208	1.035	-576.30261	2755.27100	1664.34668	-605.64038	2306.25098	1662.13623	-637.75488	1851.65320	1661.84253	-661.29095	1349.20166	1661.64319	-690.44366	902.43719	1662.27905	-714.08002	454.42627	1663.81665	-1112.22864	2805.43018	1664.55701	-1138.97119	2354.25684	1648.49866	-1168.81445	1904.44202	1638.21729	-1196.58899	1404.13770	1637.12952	-1224.00806	953.40094	1648.69080	-1242.41638	507.43890	1667.08203	
209	1.040	-576.83582	2755.33130	1663.87463	-604.33759	2305.91577	1662.51721	-637.76740	1851.71423	1661.83972	-661.31439	1349.20605	1661.63831	-690.44769	902.41040	1662.29126	-714.08716	454.47327	1663.81335	-1112.22083	2805.45776	1664.54944	-1138.96509	2354.28101	1648.50940	-1168.87646	1904.53113	1638.22534	-1196.58899	1404.13245	1637.17346	-1224.03137	953.36945	1648.71301	-1242.40503	507.48013	1667.09473	
210	1.045	-576.29852	2755.28955	1664.34412	-605.65613	2306.21899	1662.14624	-637.73169	1851.68823	1661.82605	-661.29974	1349.25208	1661.63257	-690.44739	902.43842	1662.31335	-714.08221	454.47964	1663.81165	-1112.23193	2805.48755	1664.55444	-1139.00073	2354.30518	1648.51538	-1168.87012	1904.56372	1638.25049	-1196.61829	1404.14343	1637.21240	-1224.02112	953.40594	1648.73096	-1242.41272	507.48306	1667.09473	
211	1.050	-576.29218	2755.28589	1664.36597	-605.67065	2306.25244	1662.13611	-637.76959	1851.73584	1661.82458	-661.32819	1349.23181	1661.62280	-690.44257	902.43146	1662.30151	-714.06769	454.46585	1663.81213	-1112.24451	2805.48608	1664.55908	-1139.02100	2354.29663	1648.54395	-1168.90894	1904.62683	1638.28601	-1196.60876	1404.17859	1637.26709	-1224.02747	953.41846	1648.75452	-1242.41565	507.51556	1667.08350	
212	1.055	-576.28674	2755.28467	1664.34314	-605.68402	2306.25269	1662.13525	-637.73016	1851.69580	1661.81055	-661.30023	1349.22888	1661.62878	-690.44183	902.45142	1662.27979	-714.08051	454.47430	1663.81604	-1112.24341	2805.48901	1664.52991	-1139.00195	2354.29639	1648.56763	-1168.83887	1904.54358	1638.33398	-1196.60779	1404.18323	1637.30518	-1224.03296	953.39709	1648.77307	-1242.42664	507.50925	1667.08459	
213	1.060	-576.81683	2755.37012	1663.87231	-604.32819	2305.92749	1662.51099	-637.73517	1851.73694	1661.83459	-661.32935	1349.25830	1661.62354	-690.44537	902.44336	1662.28564	-714.08124	454.48737	1663.80017	-1112.23779	2805.47192	1664.54749	-1138.97375	2354.29346	1648.56787	-1168.85632	1904.58423	1638.35229	-1196.59448	1404.17932	1637.36084	-1223.99817	953.38025	1648.80579	-1242.42822	507.47723	1667.07080	
214	1.065	-576.26929	2755.28491	1664.34741	-605.62329	2306.25806	1662.14807	-637.75043	1851.74182	1661.83557	-661.32520	1349.23132	1661.63330	-690.45349	902.45441	1662.31421	-714.08679	454.47076	1663.80859	-1112.22192	2805.48608	1664.54846	-1138.93347	2354.28662	1648.60400	-1168.79626	1904.48950	1638.72839	-1196.50354	1404.20300	1637.38342	-1224.00415	953.38489	1648.83142	-1242.43689	507.44241	1667.06494	
215	1.070	-576.29163	2755.28760	1664.34766	-605.67255	2306.26123	1662.15198	-637.72662	1851.70569	1661.85608	-661.31909	1349.23877	1661.62939	-690.45306	902.45490	1662.29956	-714.07440	454.44635	1663.82434	-1112.23633	2805.44116	1664.54724	-1138.91089	2354.27563	1648.62317	-1168.77332	1904.46582	1638.77490	-1196.53674	1404.18799	1637.43567	-1223.97815	953.35992	1648.88721	-1242.43457	507.41556	1667.09485	
216	1.075	-576.29950	2755.27661	1664.34399	-605.69751	2306.22778	1662.13550	-637.72076	1851.66516	1661.84375	-661.30579	1349.22729	1661.65833	-690.45447	902.42529	1662.30505	-714.06714	454.44772	1663.82117	-1112.21155	2805.45508	1664.56604	-1138.86243	2354.24683	1648.64990	-1168.71423	1904.43323	1638.77734	-1196.47400	1404.15686	1637.44568	-1223.94360	953.32568	1648.88416	-1242.42249	507.39264	1667.07703	
217	1.080	-576.83801	2755.32690	1663.87805	-604.36859	2305.90552	1662.50452	-637.73920	1851.67871	1661.82898	-661.31793	1349.18420	1661.65417	-690.44147	902.40387	1662.27832	-714.08038	454.43365	1663.80396	-1112.19788	2805.41260	1664.55371	-1138.82581	2354.23608	1648.64905	-1168.66357	1904.43103	1638.78906	-1196.46680	1404.17371	1637.46033	-1223.91711	953.32294	1648.89734	-1242.38550	507.37518	1667.08191	
218	1.085	-576.83685	2755.32422	1663.88293	-604.34100	2305.88501	1662.49670	-637.75018	1851.65894	1661.82178	-661.32672	1349.19495	1661.64465	-690.44183	902.36615	1662.29309	-714.06238	454.41800	1663.80737	-1112.19922	2805.40796	1664.52588	-1138.82227	2354.21094	1648.61292	-1168.68652	1904.43140	1638.76819	-1196.41809	1404.14136	1637.43250	-1223.89624	953.32727	1648.86914	-1242.35828	507.36221	1667.08264	
219	1.090	-576.82794	2755.30322	1663.86694	-604.34009	2305.84888	1662.47327	-637.75250	1851.66980	1661.82031	-661.29950	1349.16736	1661.61292	-690.45355	902.39832	1662.25415	-714.08777	454.43427	1663.79150	-1112.19690	2805.40552	1664.54431	-1138.82471	2354.22559	1648.58289	-1168.68201	1904.44104	1638.73059	-1196.41614	1404.16711	1637.39526	-1223.85669	953.34619	1648.82104	-1242.35876	507.37045	1667.05408	
220	1.095	-576.86353	2755.28882	1663.85608	-604.34460	2305.84204	1662.49597	-637.76520	1851.69275	1661.81995	-661.29871	1349.17212	1661.59961	-690.44788	902.40106	1662.27026	-714.07196	454.40833	1663.80249	-1112.20154	2805.41284	1664.54565	-1138.82349	2354.20923	1648.57312	-1168.70996	1904.49719	1638.33447	-1196.40161	1404.19885	1637.34937	-1223.86951	953.36340	1648.79346	-1242.33093	507.39163	1667.04956	
221	1.100	-576.29639	2755.24048	1664.34241	-605.67419	2306.17651	1662.12854	-637.74457	1851.67651	1661.82715	-661.28845	1349.17896	1661.61255	-690.46405	902.40948	1662.26331	-714.08038	454.41733	1663.80933	-1112.20801	2805.43433	1664.53284	-1138.86658	2354.23413	1648.55139	-1168.72424	1904.48877	1638.30737	-1196.41833	1404.15027	1637.29700	-1223.91809	953.33936	1648.77466	-1242.33997	507.38791	1667.06958	
222	1.105	-576.83826	2755.32495	1663.88135	-604.36438	2305.87964	1662.50562	-637.75500	1851.70386	1661.81824	-661.33392	1349.18933	1661.63013	-690.46124	902.39935	1662.28491	-714.10938	454.44113	1663.81689	-1112.21814	2805.42896	1664.55054	-1138.85168	2354.25439	1648.52393	-1168.77051	1904.52258	1638.25305	-1196.46326	1404.14807	1637.19263	-1223.88806	953.38898	1648.74487	-1242.33533	507.41864	1667.08801	
223	1.110	-576.82532	2755.34277	1663.87598	-604.35193	2305.91187	1662.51990	-637.75983	1851.70813	1661.84070	-661.33826	1349.23645	1661.62878	-690.47797	902.41803	1662.28845	-714.10107	454.47021	1663.82288	-1112.21216	2805.47144	1664.55359	-1138.92480	2354.27368	1648.49170	-1168.75391	1904.44543	1638.21228	-1196.48438	1404.14197	1637.12708	-1223.95923	953.38898	1648.68909	-1242.34290	507.44736	1667.09863	
224	1.115	-576.80365	2755.33130	1663.88403	-604.34717	2305.94458	1662.51550	-637.74646	1851.70886	1661.82751	-661.33301	1349.22949	1661.61938	-690.47583	902.43225	1662.28076	-714.10083	454.46179	1663.80432	-1112.23840	2805.42236	1664.54260	-1138.94568	2354.28345	1648.45386	-1168.86572	1904.47461	1638.14514	-1196.55579	1404.10876	1637.05481	-1223.96887	953.41211	1648.65234	-1242.37634	507.41135	1667.08374	
225	1.120	-576.82312	2755.33984	1663.86755	-604.36578	2305.97778	1662.50122	-637.74329	1851.71118	1661.82007	-661.31873	1349.22156	1661.63208	-690.46661	902.45764	1662.26685	-714.11151	454.44833	1663.80273	-1112.22461	2805.40454	1664.53992	-1138.96094	2354.27588	1648.42798	-1168.85437	1904.46338	1638.09595	-1196.59363	1404.08350	1636.98267	-1223.99902	953.41296	1648.60010	-1242.40283	507.46402	1667.06006	
226	1.125	-576.29437	2755.29346	1664.35181	-605.67963	2306.27637	1662.15747	-637.78369	1851.71863	1661.81018	-661.35217	1349.24878	1661.63220	-690.45673	902.46368	1662.29565	-714.10950	454.48782	1663.81055	-1112.21924	2805.41699	1664.55139	-1139.00598	2354.24854	1648.41162	-1168.91956	1904.48035	1638.09656	-1196.63904	1404.06946	1636.97473	-1224.05200	953.40204	1648.58447	-1242.42090	507.46494	1667.06604	
227	1.130	-576.29602	2755.32178	1664.35986	-605.72931	2306.32373	1662.16956	-637.76447	1851.73730	1661.84595	-661.33771	1349.23560	1661.64111	-690.46375	902.45917	1662.29077	-714.07489	454.48795	1663.81702	-1112.22107	2805.44214	1664.54858	-1138.99951	2354.28491	1648.42603	-1168.89514	1904.45715	1638.10815	-1196.66736	1404.06311	1636.97266	-1224.05896	953.39117	1648.62183	-1242.44153	507.45547	1667.08032	
